<svg xmlns="http://www.w3.org/2000/svg" width="600" height="600" preserveAspectRatio="xMidYMid meet" version="1.0" viewBox="0 0 450 450"><g fill="#000" stroke="none"><path d="M109 4472 c-43 -22 -59 -38 -81 -81 l-28 -53 0 -2087 c0 -2009 1 -2087 19 -2126 23 -49 64 -89 113 -109 33 -14 260 -16 2122 -16 l2084 0 53 28 c43 22 59 38 81 81 l28 53 0 2083 c0 1566 -3 2090 -12 2116 -18 54 -48 87 -102 114 l-50 25 -2087 0 -2087 0 -53 -28z m433 -2174 l3 -193 98 -3 97 -3 0 -44 0 -45 -155 0 -155 0 0 240 0 240 55 0 55 0 2 -192z m668 147 l0 -45 -96 0 -95 0 3 -47 3 -48 88 -3 88 -3 -3 -42 -3 -42 -87 -3 -88 -3 0 -54 0 -55 100 0 100 0 0 -45 0 -45 -155 0 -155 0 0 240 0 240 150 0 150 0 0 -45z m304 -37 c14 -46 36 -125 48 -175 13 -51 25 -93 28 -93 3 0 28 79 55 175 l50 175 58 0 c31 0 57 -3 57 -7 0 -5 -35 -113 -77 -240 l-78 -233 -67 0 -66 0 -16 48 c-22 71 -122 384 -130 410 -7 21 -5 22 53 22 l60 0 25 -82z m566 -158 l0 -240 -55 0 -55 0 0 240 0 240 55 0 55 0 0 -240z m550 195 l0 -45 -70 0 -70 0 0 -195 0 -195 -55 0 -55 0 0 195 0 195 -65 0 -65 0 0 45 0 45 190 0 190 0 0 -45z m435 -182 c39 -125 71 -233 73 -240 3 -10 -12 -13 -56 -13 l-59 0 -17 60 -17 61 -72 -3 -71 -3 -14 -57 -14 -58 -60 0 c-45 0 -59 3 -55 13 3 7 35 112 72 233 37 120 69 222 72 227 2 4 37 7 76 7 l72 0 70 -227z m535 182 l0 -45 -65 0 c-64 0 -65 0 -65 -27 -1 -16 -2 -102 -3 -193 l-2 -165 -57 -3 -58 -3 0 196 0 195 -65 0 -65 0 0 45 0 45 190 0 190 0 0 -45z m450 0 l0 -45 -96 0 -95 0 3 -47 3 -48 88 -3 87 -3 0 -44 0 -45 -90 0 -90 0 0 -55 0 -55 100 0 100 0 0 -45 0 -45 -155 0 -155 0 0 240 0 240 150 0 150 0 0 -45z" transform="translate(0.000000,450.000000) scale(0.100000,-0.100000)"/><path d="M2891 2308 c-11 -46 -21 -86 -21 -90 0 -5 23 -8 51 -8 43 0 50 2 45 17 -4 9 -14 46 -23 82 -9 36 -19 70 -23 74 -4 4 -17 -30 -29 -75z" transform="translate(0.000000,450.000000) scale(0.100000,-0.100000)"/></g></svg>