<svg xmlns="http://www.w3.org/2000/svg" width="500" height="500" version="1.1"><path fill="#F2F2F2" d="M0 0 C5.61 0 11.22 0 17 0 C23.09241269 17.89646228 28.74782759 35.83921855 34 54 C29.05 54 24.1 54 19 54 C16 43.375 16 43.375 16 40 C11.05 40 6.1 40 1 40 C0.525625 42.124375 0.05125 44.24875 -0.4375 46.4375 C-1.875 52.875 -1.875 52.875 -3 54 C-5.18639453 54.07258946 -7.37500389 54.08373783 -9.5625 54.0625 C-11.35880859 54.04896484 -11.35880859 54.04896484 -13.19140625 54.03515625 C-14.11824219 54.02355469 -15.04507812 54.01195312 -16 54 C-14.75803647 47.14216412 -13.08732024 40.55134288 -10.99609375 33.90625 C-10.71274673 32.99290894 -10.42939972 32.07956787 -10.13746643 31.1385498 C-9.54395007 29.22867749 -8.94805315 27.31954344 -8.34985352 25.41113281 C-7.43168633 22.48144979 -6.52090713 19.54954702 -5.61132812 16.6171875 C-5.03167337 14.75507649 -4.45161011 12.89309258 -3.87109375 11.03125 C-3.59817001 10.15424438 -3.32524628 9.27723877 -3.04405212 8.37365723 C-2.66344383 7.16099182 -2.66344383 7.16099182 -2.27514648 5.92382812 C-1.94111061 4.8565448 -1.94111061 4.8565448 -1.60032654 3.7677002 C-1 2 -1 2 0 0 Z M8 12 C5.72776785 18.27136074 4.20149335 24.43799785 3 31 C6.63 31 10.26 31 14 31 C12.35 24.73 10.7 18.46 9 12 C8.67 12 8.34 12 8 12 Z" transform="translate(316,223)"/><path fill="#F0F0F0" d="M0 0 C4.62 0 9.24 0 14 0 C17.89447644 12.61329027 21.71398644 25.21343886 25 38 C25.2266333 37.16863525 25.4532666 36.33727051 25.68676758 35.48071289 C26.54023373 32.35467283 27.39596834 29.22926461 28.25317383 26.10424805 C28.62157707 24.75943952 28.98911218 23.41439282 29.35571289 22.0690918 C31.38003166 14.64290738 33.46943053 7.27239366 36 0 C40.62 0 45.24 0 50 0 C47.44015728 10.0687147 44.14358884 19.87350384 40.84716797 29.71923828 C39.86624087 32.65118059 38.89183604 35.58523739 37.91796875 38.51953125 C37.29726036 40.38033692 36.67618041 42.2410187 36.0546875 44.1015625 C35.76302704 44.98059235 35.47136658 45.85962219 35.17086792 46.76528931 C34.76507004 47.97322647 34.76507004 47.97322647 34.35107422 49.20556641 C34.11363495 49.91629303 33.87619568 50.62701965 33.63156128 51.35928345 C33 53 33 53 32 54 C29.46950598 54.07313567 26.96695163 54.09247527 24.4375 54.0625 C23.72658203 54.05798828 23.01566406 54.05347656 22.28320312 54.04882812 C20.52209987 54.03700864 18.76103964 54.01907263 17 54 C14.29856794 47.46522221 11.89301563 40.90259368 9.765625 34.16015625 C9.48273621 33.2713829 9.19984741 32.38260956 8.90838623 31.46690369 C8.31840605 29.60963095 7.73030753 27.75175949 7.14404297 25.89331055 C6.24398609 23.04345814 5.33523412 20.1964754 4.42578125 17.34960938 C3.85104155 15.5366234 3.27680442 13.72347801 2.703125 11.91015625 C2.29540863 10.63520042 2.29540863 10.63520042 1.87945557 9.33448792 C1.63209656 8.54614059 1.38473755 7.75779327 1.12988281 6.94555664 C0.91100403 6.25401993 0.69212524 5.56248322 0.46661377 4.84999084 C0 3 0 3 0 0 Z" transform="translate(152,223)"/><path fill="#F9F9F9" d="M0 0 C11.22 0 22.44 0 34 0 C34 3.3 34 6.6 34 10 C27.07 10 20.14 10 13 10 C13 13.63 13 17.26 13 21 C19.27 21 25.54 21 32 21 C32 24.3 32 27.6 32 31 C25.73 31 19.46 31 13 31 C13 35.29 13 39.58 13 44 C20.26 44 27.52 44 35 44 C35 47.3 35 50.6 35 54 C23.45 54 11.9 54 0 54 C0 36.18 0 18.36 0 0 Z" transform="translate(417,223)"/><path fill="#F9F9F9" d="M0 0 C11.22 0 22.44 0 34 0 C34 3.3 34 6.6 34 10 C27.07 10 20.14 10 13 10 C13 13.63 13 17.26 13 21 C19.27 21 25.54 21 32 21 C32 24.3 32 27.6 32 31 C25.73 31 19.46 31 13 31 C13 35.29 13 39.58 13 44 C20.26 44 27.52 44 35 44 C35 47.3 35 50.6 35 54 C23.45 54 11.9 54 0 54 C0 36.18 0 18.36 0 0 Z" transform="translate(101,223)"/><path fill="#F3F3F3" d="M0 0 C13.86 0 27.72 0 42 0 C42 3.63 42 7.26 42 11 C37.05 11 32.1 11 27 11 C27 25.19 27 39.38 27 54 C22.71 54 18.42 54 14 54 C14 39.81 14 25.62 14 11 C9.38 11 4.76 11 0 11 C0 7.37 0 3.74 0 0 Z" transform="translate(358,223)"/><path fill="#F3F3F3" d="M0 0 C13.86 0 27.72 0 42 0 C42 3.63 42 7.26 42 11 C37.05 11 32.1 11 27 11 C27 25.19 27 39.38 27 54 C22.71 54 18.42 54 14 54 C14 39.81 14 25.62 14 11 C9.38 11 4.76 11 0 11 C0 7.37 0 3.74 0 0 Z" transform="translate(250,223)"/><path fill="#F3F3F3" d="M0 0 C4.29 0 8.58 0 13 0 C13 14.19 13 28.38 13 43 C19.93 43 26.86 43 34 43 C34 46.63 34 50.26 34 54 C22.78 54 11.56 54 0 54 C0 36.18 0 18.36 0 0 Z" transform="translate(48,223)"/><path fill="#F3F3F3" d="M0 0 C4.29 0 8.58 0 13 0 C13 17.82 13 35.64 13 54 C8.71 54 4.42 54 0 54 C0 36.18 0 18.36 0 0 Z" transform="translate(219,223)"/></svg>