<svg xmlns="http://www.w3.org/2000/svg" width="500" height="500" version="1.1"><path fill="#000" d="M0 0 C165 0 330 0 500 0 C500 165 500 330 500 500 C335 500 170 500 0 500 C0 335 0 170 0 0 Z" transform="translate(0,0)"/><path fill="#F7F7F7" d="M0 0 C5.61 0 11.22 0 17 0 C25.90713945 27.76021625 25.90713945 27.76021625 30 41 C30.47953125 42.52753906 30.47953125 42.52753906 30.96875 44.0859375 C31.2471875 44.98570312 31.525625 45.88546875 31.8125 46.8125 C32.16248047 47.93591797 32.16248047 47.93591797 32.51953125 49.08203125 C33 51 33 51 33 54 C28.71 54 24.42 54 20 54 C18.05527566 49.09591252 16.88420206 45.30521238 16 40 C10.72 40 5.44 40 0 40 C-0.12375 41.19625 -0.2475 42.3925 -0.375 43.625 C-0.77380462 47.48011134 -1.70431438 50.11294313 -3 54 C-7.29 54 -11.58 54 -16 54 C-14.82768042 47.9252531 -13.11375845 42.21771852 -11.10327148 36.3684082 C-8.87899996 29.81168463 -6.9997561 23.16601291 -5.14355469 16.49707031 C-3.58784473 10.93609887 -1.86588501 5.46516615 0 0 Z" transform="translate(316,223)"/><path fill="#F7F7F7" d="M0 0 C4.62 0 9.24 0 14 0 C15.40840461 4.89225253 16.81417049 9.78525275 18.2175293 14.67895508 C18.69499985 16.34257322 19.17318244 18.00598718 19.65209961 19.66918945 C20.34156979 22.0640781 21.02845018 24.45969676 21.71484375 26.85546875 C22.03520851 27.96513252 22.03520851 27.96513252 22.36204529 29.09721375 C23.39474525 32.711079 24.33610562 36.2993447 25 40 C25.23074219 38.94683594 25.46148437 37.89367187 25.69921875 36.80859375 C27.65171843 28.10361469 29.97415063 19.70210525 32.89453125 11.2734375 C34.15397444 7.54406155 35.13843075 3.8378994 36 0 C40.62 0 45.24 0 50 0 C48.13195363 7.58207055 45.66083507 14.77638216 42.91552734 22.07080078 C38.9766399 32.61099095 35.50845721 43.31059661 32 54 C27.05 54 22.1 54 17 54 C8.32984961 29.35741236 8.32984961 29.35741236 5 18 C4.5511564 16.49207578 4.10190742 14.9842722 3.65234375 13.4765625 C3.18446174 11.90117052 2.71701066 10.3256505 2.25 8.75 C2.02675049 7.99734863 1.80350098 7.24469727 1.57348633 6.46923828 C0 1.11777474 0 1.11777474 0 0 Z" transform="translate(152,223)"/><path fill="#FFF" d="M0 0 C10.89 0 21.78 0 33 0 C33 3.3 33 6.6 33 10 C26.07 10 19.14 10 12 10 C12 13.63 12 17.26 12 21 C18.6 21 25.2 21 32 21 C32 24.3 32 27.6 32 31 C25.4 31 18.8 31 12 31 C12 35.29 12 39.58 12 44 C19.26 44 26.52 44 34 44 C34 47.3 34 50.6 34 54 C22.78 54 11.56 54 0 54 C0 36.18 0 18.36 0 0 Z" transform="translate(417,223)"/><path fill="#FFF" d="M0 0 C10.89 0 21.78 0 33 0 C33 3.3 33 6.6 33 10 C26.07 10 19.14 10 12 10 C12 13.63 12 17.26 12 21 C18.6 21 25.2 21 32 21 C32 24.3 32 27.6 32 31 C25.4 31 18.8 31 12 31 C12 35.29 12 39.58 12 44 C19.26 44 26.52 44 34 44 C34 47.3 34 50.6 34 54 C22.78 54 11.56 54 0 54 C0 36.18 0 18.36 0 0 Z" transform="translate(101,223)"/><path fill="#FEFEFE" d="M0 0 C13.86 0 27.72 0 42 0 C42 3.3 42 6.6 42 10 C37.05 10 32.1 10 27 10 C27 24.52 27 39.04 27 54 C23.04 54 19.08 54 15 54 C15 39.48 15 24.96 15 10 C10.05 10 5.1 10 0 10 C0 6.7 0 3.4 0 0 Z" transform="translate(358,223)"/><path fill="#FEFEFE" d="M0 0 C13.86 0 27.72 0 42 0 C42 3.3 42 6.6 42 10 C37.05 10 32.1 10 27 10 C27 24.52 27 39.04 27 54 C23.04 54 19.08 54 15 54 C15 39.48 15 24.96 15 10 C10.05 10 5.1 10 0 10 C0 6.7 0 3.4 0 0 Z" transform="translate(250,223)"/><path fill="#FEFEFE" d="M0 0 C3.96 0 7.92 0 12 0 C12 14.52 12 29.04 12 44 C19.26 44 26.52 44 34 44 C34 47.3 34 50.6 34 54 C22.78 54 11.56 54 0 54 C0 36.18 0 18.36 0 0 Z" transform="translate(48,223)"/><path fill="#FFF" d="M0 0 C3.96 0 7.92 0 12 0 C12 17.82 12 35.64 12 54 C8.04 54 4.08 54 0 54 C0 36.18 0 18.36 0 0 Z" transform="translate(219,223)"/><path fill="#040404" d="M0 0 C0.66 0 1.32 0 2 0 C3.65 6.27 5.3 12.54 7 19 C3.37 19 -0.26 19 -4 19 C-3.00318287 12.54189755 -1.98363508 6.23428168 0 0 Z" transform="translate(323,235)"/></svg>